<svg version="1.1" xmlns="http://www.w3.org/2000/svg" xmlns:xlink="http://www.w3.org/1999/xlink" width="32.000000" height="32.000000" viewBox="0,0,256,256"><defs><clipPath id="clip-1"><rect x="-0.00012" y="0" width="32" height="32" id="clip0_85" fill="none" fill-rule="nonzero"></rect></clipPath></defs><g fill="none" fill-rule="none" stroke="none" stroke-width="1" stroke-linecap="butt" stroke-linejoin="miter" stroke-miterlimit="10" stroke-dasharray="" stroke-dashoffset="0" font-family="none" font-weight="none" font-size="none" text-anchor="none" style="mix-blend-mode: normal"><g transform="translate(0.00098,0) scale(8,8)"><rect x="-0.00012" y="0" width="32" height="32" id="arrow-back-outline (1) 1" fill-opacity="0" fill="#9aa09a" fill-rule="nonzero"></rect><g clip-path="url(#clip-1)"><g fill="#9aa09a" fill-rule="evenodd" opacity="0"><path d="M31.99,0v32h-32v-32z" id="Vector"></path></g><path d="M25.33,14.66h-15.82l4.84,-5.81c0.23,-0.27 0.34,-0.63 0.31,-0.98c-0.03,-0.35 -0.21,-0.68 -0.48,-0.9c-0.27,-0.23 -0.62,-0.34 -0.97,-0.3c-0.36,0.03 -0.68,0.2 -0.91,0.47l-6.67,8c-0.04,0.07 -0.08,0.13 -0.12,0.2c0,0.07 0,0.11 -0.09,0.18c-0.06,0.15 -0.09,0.31 -0.09,0.48c0,0.16 0.03,0.32 0.09,0.48c0,0.06 0,0.1 0.09,0.17c0.04,0.07 0.08,0.13 0.12,0.2l6.67,8c0.13,0.15 0.28,0.27 0.46,0.35c0.18,0.09 0.37,0.13 0.57,0.13c0.31,0 0.61,-0.11 0.85,-0.31c0.14,-0.11 0.25,-0.25 0.33,-0.4c0.08,-0.16 0.13,-0.33 0.15,-0.5c0.01,-0.18 0,-0.35 -0.06,-0.52c-0.05,-0.17 -0.13,-0.32 -0.25,-0.46l-4.84,-5.81h15.82c0.35,0 0.69,-0.14 0.94,-0.39c0.25,-0.25 0.39,-0.59 0.39,-0.94c0,-0.36 -0.14,-0.7 -0.39,-0.95c-0.25,-0.25 -0.59,-0.39 -0.94,-0.39z" id="Vector" fill="#9aa09a" fill-rule="nonzero"></path></g></g></g></svg>