<svg version="1.1" xmlns="http://www.w3.org/2000/svg" xmlns:xlink="http://www.w3.org/1999/xlink" width="32" height="32" viewBox="0,0,256,256"><defs><clipPath id="clip-1"><rect x="-31.9999" y="-32" transform="rotate(-180)" width="32" height="32" id="clip0_0_77" fill="none"></rect></clipPath></defs><g fill="none" fill-rule="nonzero" stroke="none" stroke-width="1" stroke-linecap="butt" stroke-linejoin="miter" stroke-miterlimit="10" stroke-dasharray="" stroke-dashoffset="0" font-family="none" font-weight="none" font-size="none" text-anchor="none" style="mix-blend-mode: normal"><g transform="translate(0.0008,0) scale(8,8)"><g clip-path="url(#clip-1)"><path d="M6.6666,17.3334h15.8133l-4.84,5.8133c-0.2263,0.2723 -0.3352,0.6233 -0.3027,0.9759c0.0325,0.3526 0.2038,0.6778 0.4761,0.9041c0.2723,0.2263 0.6233,0.3352 0.9759,0.3027c0.3525,-0.0325 0.6777,-0.2038 0.9041,-0.476l6.6666,-8c0.0449,-0.0637 0.085,-0.1305 0.12,-0.2c0,-0.0667 0,-0.1067 0.0934,-0.1734c0.0604,-0.1529 0.092,-0.3156 0.0933,-0.48c-0.0013,-0.1644 -0.0329,-0.3271 -0.0933,-0.48c0,-0.0666 0,-0.1066 -0.0934,-0.1733c-0.035,-0.0695 -0.0751,-0.1364 -0.12,-0.2l-6.6666,-8.00001c-0.1254,-0.15051 -0.2824,-0.27155 -0.4598,-0.35451c-0.1775,-0.08297 -0.371,-0.12581 -0.5669,-0.12549c-0.3115,-0.00061 -0.6135,0.10789 -0.8533,0.30666c-0.135,0.11194 -0.2467,0.2494 -0.3285,0.40453c-0.0818,0.15513 -0.1322,0.32487 -0.1483,0.49951c-0.0161,0.17464 0.0025,0.35073 0.0545,0.5182c0.0521,0.16747 0.1367,0.32303 0.2489,0.45776l4.84,5.81335h-15.8133c-0.35362,0 -0.69276,0.1405 -0.94281,0.3905c-0.25005,0.2501 -0.39052,0.5892 -0.39052,0.9428c0,0.3536 0.14047,0.6928 0.39052,0.9428c0.25005,0.2501 0.58919,0.3906 0.94281,0.3906z" fill="#9aa09a"></path></g></g></g></svg>