<?xml version="1.0" standalone="no"?>
<!DOCTYPE svg PUBLIC "-//W3C//DTD SVG 20010904//EN"
 "http://www.w3.org/TR/2001/REC-SVG-20010904/DTD/svg10.dtd">
<svg version="1.0" xmlns="http://www.w3.org/2000/svg"
 width="700.000000pt" height="700.000000pt" viewBox="0 0 700.000000 700.000000"
 preserveAspectRatio="xMidYMid meet">
<metadata>
Created by potrace 1.14, written by Peter Selinger 2001-2017
</metadata>
<g transform="translate(0.000000,700.000000) scale(0.100000,-0.100000)"
fill="#000000" stroke="none">
<path d="M3335 6834 c-104 -19 -184 -46 -276 -93 -41 -21 -542 -308 -1114
-639 -657 -379 -1068 -622 -1116 -660 -178 -142 -303 -355 -344 -590 -21 -114
-21 -2590 0 -2704 41 -235 166 -448 344 -590 42 -33 225 -145 406 -250 182
-105 668 -385 1082 -624 413 -239 785 -447 826 -464 216 -86 468 -90 690 -10
113 41 2227 1260 2338 1348 178 142 303 355 344 590 21 114 21 2590 0 2704
-41 235 -166 448 -344 590 -111 88 -2225 1307 -2338 1348 -158 57 -337 73
-498 44z m610 -2488 c193 -54 319 -173 367 -345 23 -83 24 -252 3 -336 -46
-174 -171 -297 -358 -352 -38 -12 -120 -17 -309 -20 l-258 -5 0 -196 c-1 -215
-8 -270 -46 -319 -33 -43 -71 -62 -141 -69 -106 -11 -187 29 -224 111 -17 38
-19 82 -19 720 0 640 2 682 19 720 25 54 61 85 118 101 76 21 767 13 848 -10z"/>
<path d="M3390 3830 l0 -212 193 4 c184 3 195 4 242 29 69 35 99 90 99 179 0
95 -35 149 -119 187 -32 14 -76 18 -227 21 l-188 4 0 -212z"/>
</g>
</svg>
